# Blender v2.92.0 OBJ File: 'sikmarovina.blend'
# www.blender.org
mtllib sikmarovina.mtl
o Plane_Plane.002
v -1.000000 2.765281 -0.010031
v 1.000000 2.765281 -0.010031
v -1.000000 0.468220 -3.284708
v 1.000000 0.468220 -3.284708
v -1.000000 0.659642 -3.011818
v -1.000000 0.851064 -2.738928
v -1.000000 1.042486 -2.466039
v -1.000000 1.233907 -2.193149
v -1.000000 1.425329 -1.920259
v -1.000000 1.616751 -1.647369
v -1.000000 1.808172 -1.374480
v -1.000000 1.999594 -1.101590
v -1.000000 2.191016 -0.828700
v -1.000000 2.382438 -0.555810
v -1.000000 2.573859 -0.282920
v 1.000000 2.573859 -0.282920
v 1.000000 2.382437 -0.555810
v 1.000000 2.191016 -0.828700
v 1.000000 1.999594 -1.101590
v 1.000000 1.808172 -1.374480
v 1.000000 1.616751 -1.647370
v 1.000000 1.425329 -1.920259
v 1.000000 1.233907 -2.193149
v 1.000000 1.042486 -2.466039
v 1.000000 0.851064 -2.738929
v 1.000000 0.659642 -3.011818
v -0.600000 2.765281 -0.010031
v -0.200000 2.765281 -0.010031
v 0.200000 2.765281 -0.010031
v 0.600000 2.765281 -0.010031
v 0.600000 0.468220 -3.284708
v 0.200000 0.468220 -3.284708
v -0.200000 0.468220 -3.284708
v -0.600000 0.468220 -3.284708
v 0.600000 2.573859 -0.282920
v 0.200000 2.573859 -0.282920
v -0.200000 2.573859 -0.282920
v -0.600000 2.573859 -0.282920
v 0.600000 2.382437 -0.555810
v 0.200000 2.382437 -0.555810
v -0.200000 2.382437 -0.555810
v -0.600000 2.382437 -0.555810
v 0.600000 2.191016 -0.828700
v 0.200000 2.191016 -0.828700
v -0.200000 2.191016 -0.828700
v -0.600000 2.191016 -0.828700
v 0.600000 1.999594 -1.101590
v 0.200000 1.999594 -1.101590
v -0.200000 1.999594 -1.101590
v -0.600000 1.999594 -1.101590
v 0.600000 1.808172 -1.374480
v 0.200000 1.808172 -1.374480
v -0.200000 1.808172 -1.374480
v -0.600000 1.808172 -1.374480
v 0.600000 1.616751 -1.647370
v 0.200000 1.616751 -1.647369
v -0.200000 1.616751 -1.647369
v -0.600000 1.616751 -1.647369
v 0.600000 1.425329 -1.920259
v 0.200000 1.425329 -1.920259
v -0.200000 1.425329 -1.920259
v -0.600000 1.425329 -1.920259
v 0.600000 1.233907 -2.193149
v 0.200000 1.233907 -2.193149
v -0.200000 1.233907 -2.193149
v -0.600000 1.233907 -2.193149
v 0.600000 1.042486 -2.466039
v 0.200000 1.042486 -2.466039
v -0.200000 1.042486 -2.466039
v -0.600000 1.042486 -2.466039
v 0.600000 0.851064 -2.738929
v 0.200000 0.851064 -2.738929
v -0.200000 0.851064 -2.738929
v -0.600000 0.851064 -2.738928
v 0.600000 0.659642 -3.011818
v 0.200000 0.659642 -3.011818
v -0.200000 0.659642 -3.011818
v -0.600000 0.659642 -3.011818
v -1.000000 0.272970 -3.563056
v 1.000000 0.272970 -3.563056
v 0.600000 0.272970 -3.563056
v 0.200000 0.272970 -3.563056
v -0.200000 0.272970 -3.563056
v -0.600000 0.272970 -3.563056
v -1.000000 2.765281 -0.010031
v 1.000000 2.765281 -0.010031
v -1.000000 0.468220 -3.284708
v 1.000000 0.468220 -3.284708
v -1.000000 0.659642 -3.011818
v -1.000000 0.851064 -2.738928
v -1.000000 1.042486 -2.466039
v -1.000000 1.233907 -2.193149
v -1.000000 1.425329 -1.920259
v -1.000000 1.616751 -1.647369
v -1.000000 1.808172 -1.374480
v -1.000000 1.999594 -1.101590
v -1.000000 2.191016 -0.828700
v -1.000000 2.382438 -0.555810
v -1.000000 2.573859 -0.282920
v 1.000000 2.573859 -0.282920
v 1.000000 2.382437 -0.555810
v 1.000000 2.191016 -0.828700
v 1.000000 1.999594 -1.101590
v 1.000000 1.808172 -1.374480
v 1.000000 1.616751 -1.647370
v 1.000000 1.425329 -1.920259
v 1.000000 1.233907 -2.193149
v 1.000000 1.042486 -2.466039
v 1.000000 0.851064 -2.738929
v 1.000000 0.659642 -3.011818
v -0.600000 2.765281 -0.010031
v -0.200000 2.765281 -0.010031
v 0.200000 2.765281 -0.010031
v 0.600000 2.765281 -0.010031
v 0.600000 0.468220 -3.284708
v -0.600000 2.191016 -0.828700
v 0.600000 1.616751 -1.647370
v -0.600000 1.042486 -2.466039
v -1.000000 0.021862 -3.921034
v 1.000000 0.021862 -3.921034
v 0.600000 0.021862 -3.921034
v 0.200000 0.021862 -3.921034
v -0.200000 0.021862 -3.921034
v -0.600000 0.021862 -3.921034
v -1.000000 3.266323 -0.009995
v 1.000000 3.266323 -0.009995
v -1.000000 0.969263 -3.284672
v 1.000000 0.969263 -3.284672
v -1.000000 1.160685 -3.011782
v -1.000000 1.352106 -2.738892
v -1.000000 1.543528 -2.466002
v -1.000000 1.734950 -2.193113
v -1.000000 1.926371 -1.920223
v -1.000000 2.117793 -1.647333
v -1.000000 2.309215 -1.374443
v -1.000000 2.500637 -1.101553
v -1.000000 2.692058 -0.828664
v -1.000000 2.883480 -0.555774
v -1.000000 3.074902 -0.282884
v 1.000000 3.074902 -0.282884
v 1.000000 2.883480 -0.555774
v 1.000000 2.692058 -0.828664
v 1.000000 2.500637 -1.101554
v 1.000000 2.309215 -1.374444
v 1.000000 2.117793 -1.647333
v 1.000000 1.926371 -1.920223
v 1.000000 1.734950 -2.193113
v 1.000000 1.543528 -2.466002
v 1.000000 1.352106 -2.738892
v 1.000000 1.160685 -3.011782
v -0.600000 3.266323 -0.009995
v -0.200000 3.266323 -0.009995
v 0.200000 3.266323 -0.009995
v 0.600000 3.266323 -0.009995
v -1.000000 0.522904 -3.920998
v 1.000000 0.522904 -3.920998
v 0.600000 0.522904 -3.920998
v 0.200000 0.522904 -3.920998
v -0.200000 0.522904 -3.920998
v -0.600000 0.522904 -3.920998
v -1.000000 0.019791 -3.923987
v 1.000000 0.019791 -3.923987
v 0.600000 0.019791 -3.923987
v 0.200000 0.019791 -3.923987
v -0.200000 0.019791 -3.923987
v -0.600000 0.019791 -3.923987
v 0.000000 0.798081 -1.073104
v 0.000000 2.435420 -2.221634
v -1.000000 2.765281 -0.010031
v 1.000000 2.765281 -0.010031
v -0.600000 2.765281 -0.010031
v -0.200000 2.765281 -0.010031
v 0.200000 2.765281 -0.010031
v 0.600000 2.765281 -0.010031
v -1.000000 0.021862 -3.921034
v 1.000000 0.021862 -3.921034
v 0.600000 0.021862 -3.921034
v 0.200000 0.021862 -3.921034
v -0.200000 0.021862 -3.921034
v -0.600000 0.021862 -3.921034
v -1.000000 0.021862 -0.011034
v 1.000000 0.021862 -0.011034
v 0.600000 0.021862 -0.011034
v 0.200000 0.021862 -0.011034
v -0.200000 0.021862 -0.011034
v -0.600000 0.021862 -0.011034
vt 0.000000 0.000000
vt 0.000000 0.000000
vt 0.000000 0.000000
vt 0.000000 0.000000
vt 0.000000 0.000000
vt 0.000000 0.000000
vt 0.000000 0.000000
vt 0.000000 0.000000
vt 0.000000 0.000000
vt 0.000000 0.000000
vt 0.000000 0.000000
vt 0.000000 0.000000
vt 0.000000 0.000000
vt 0.000000 0.000000
vt 0.000000 0.000000
vt 0.000000 0.000000
vt 0.000000 0.000000
vt 0.000000 0.000000
vt 0.000000 0.000000
vt 0.000000 0.000000
vt 0.000000 0.000000
vt 0.000000 0.000000
vt 0.000000 0.000000
vt 0.000000 0.000000
vt 0.000000 0.000000
vt 0.000000 0.000000
vt 0.000000 0.000000
vt 0.000000 0.000000
vt 0.000000 0.000000
vt 0.000000 0.000000
vt 0.000000 0.000000
vt 0.000000 0.000000
vt 0.000000 0.000000
vt 0.000000 0.000000
vt 0.000000 0.000000
vt 0.000000 0.000000
vt 0.000000 0.000000
vt 0.000000 0.000000
vt 0.000000 0.000000
vt 0.000000 0.000000
vt 0.000000 0.000000
vt 0.000000 0.000000
vt 0.000000 0.000000
vt 0.000000 0.000000
vt 0.000000 0.000000
vt 0.000000 0.000000
vt 0.000000 0.000000
vt 0.000000 0.000000
vt 0.000000 0.000000
vt 0.000000 0.000000
vt 0.000000 0.000000
vt 0.000000 0.000000
vt 0.000000 0.000000
vt 0.000000 0.000000
vt 0.000000 0.000000
vt 0.000000 0.000000
vt 0.000000 0.000000
vt 0.000000 0.000000
vt 0.000000 0.000000
vt 0.000000 0.000000
vt 0.000000 0.000000
vt 0.000000 0.000000
vt 0.000000 0.000000
vt 0.000000 0.000000
vt 0.000000 0.000000
vt 0.000000 0.000000
vt 0.000000 0.000000
vt 0.000000 0.000000
vt 0.000000 0.000000
vt 0.000000 0.000000
vt 0.000000 0.000000
vt 0.000000 0.000000
vt 0.000000 0.000000
vt 0.000000 0.000000
vt 0.000000 0.000000
vt 0.000000 0.000000
vt 0.000000 0.000000
vt 0.000000 0.000000
vt 0.000000 0.000000
vt 0.000000 0.000000
vt 0.000000 0.000000
vt 0.000000 0.000000
vt 0.000000 0.000000
vt 0.000000 0.000000
vt 0.000000 0.000000
vt 0.000000 0.000000
vt 0.000000 0.000000
vt 0.000000 0.000000
vt 0.000000 0.000000
vt 0.000000 0.000000
vt 0.000000 0.000000
vt 0.000000 0.000000
vt 0.000000 0.000000
vt 0.000000 0.000000
vt 0.000000 0.000000
vt 0.000000 0.000000
vt 0.000000 0.000000
vt 0.000000 0.000000
vt 0.000000 0.000000
vt 0.000000 0.000000
vt 0.000000 0.000000
vt 0.000000 0.000000
vt 0.000000 0.000000
vt 0.000000 0.000000
vt 0.000000 0.000000
vt 0.000000 0.000000
vt 0.000000 0.000000
vt 0.000000 0.000000
vt 0.000000 0.000000
vt 0.000000 0.000000
vt 0.000000 0.000000
vt 0.000000 0.000000
vt 0.000000 0.000000
vt 0.000000 0.000000
vt 0.000000 0.000000
vt 0.000000 0.000000
vt 0.000000 0.000000
vt 0.000000 0.000000
vt 0.000000 0.000000
vt 0.000000 0.000000
vt 0.000000 0.000000
vt 0.000000 0.000000
vt 0.000000 0.000000
vt 0.000000 0.000000
vt 0.000000 0.000000
vt 0.000000 0.000000
vt 0.000000 0.000000
vt 0.000000 0.000000
vt 0.000000 0.000000
vt 0.000000 0.000000
vt 0.000000 0.000000
vt 0.000000 0.000000
vt 0.000000 0.000000
vt 0.000000 0.000000
vt 0.000000 0.000000
vt 0.000000 0.000000
vt 0.000000 0.000000
vt 0.000000 0.000000
vt 0.000000 0.000000
vt 0.000000 0.000000
vt 0.000000 0.000000
vt 0.000000 0.000000
vt 0.000000 0.000000
vt 0.000000 0.000000
vt 0.000000 0.000000
vt 0.000000 0.000000
vt 0.000000 0.000000
vt 0.000000 0.000000
vt 0.000000 0.000000
vt 0.000000 0.000000
vt 0.000000 0.000000
vt 0.000000 0.000000
vt 0.000000 0.000000
vt 0.000000 0.000000
vt 0.000000 0.000000
vt 0.000000 0.000000
vt 0.000000 0.000000
vt 0.000000 0.000000
vt 0.000000 0.000000
vt 0.000000 0.000000
vt 0.000000 0.000000
vt 0.000000 0.000000
vt 0.000000 0.000000
vt 0.000000 0.000000
vt 0.000000 0.000000
vt 0.000000 0.000000
vt 0.000000 0.000000
vt 0.000000 0.000000
vt 0.000000 0.000000
vt 0.000000 0.000000
vt 0.000000 0.000000
vt 0.000000 0.000000
vt 0.000000 0.000000
vt 0.000000 0.000000
vt 0.000000 0.000000
vt 0.000000 0.000000
vt 0.000000 0.000000
vt 0.000000 0.000000
vt 0.000000 0.000000
vt 0.000000 0.000000
vt 0.000000 0.000000
vt 0.000000 0.000000
vt 0.000000 0.000000
vt 0.000000 0.000000
vn 0.0000 0.0000 1.0000
vn -1.0000 0.0000 0.0000
vn 1.0000 0.0000 0.0000
vn 0.0000 -0.0001 1.0000
vn 0.0000 0.0001 -1.0000
vn 0.0000 -0.8187 0.5743
vn 0.0000 -1.0000 0.0000
vn 0.0000 0.0004 -1.0000
vn 0.0000 0.8187 -0.5743
g Plane_Plane.002_All
usemtl All
s off
f 8/1/1 7/2/1 91/3/1 92/4/1
f 22/5/1 21/6/1 105/7/1 106/8/1
f 9/9/1 8/1/1 92/4/1 93/10/1
f 23/11/1 22/5/1 106/8/1 107/12/1
f 10/13/1 9/9/1 93/10/1 94/14/1
f 24/15/1 23/11/1 107/12/1 108/16/1
f 11/17/1 10/13/1 94/14/1 95/18/1
f 27/19/1 1/20/1 85/21/1 111/22/1
f 25/23/1 24/15/1 108/16/1 109/24/1
f 12/25/1 11/17/1 95/18/1 96/26/1
f 28/27/1 27/19/1 111/22/1 112/28/1
f 26/29/1 25/23/1 109/24/1 110/30/1
f 3/31/1 79/32/1 119/33/1 87/34/1
f 13/35/1 12/25/1 96/26/1 97/36/1
f 29/37/1 28/27/1 112/28/1 113/38/1
f 14/39/1 13/35/1 97/36/1 98/40/1
f 30/41/1 29/37/1 113/38/1 114/42/1
f 1/20/1 15/43/1 99/44/1 85/21/1
f 15/43/1 14/39/1 98/40/1 99/44/1
f 2/45/1 30/41/1 114/42/1 86/46/1
f 16/47/1 2/45/1 86/46/1 100/48/1
f 4/49/1 26/29/1 110/30/1 88/50/1
f 17/51/1 16/47/1 100/48/1 101/52/1
f 46/53/1 16/47/1 100/48/1 116/54/1
f 80/55/1 4/49/1 88/50/1 120/56/1
f 18/57/1 17/51/1 101/52/1 102/58/1
f 55/59/1 12/25/1 96/26/1 117/60/1
f 5/61/1 3/31/1 87/34/1 89/62/1
f 19/63/1 18/57/1 102/58/1 103/64/1
f 70/65/1 22/5/1 106/8/1 118/66/1
f 6/67/1 5/61/1 89/62/1 90/68/1
f 20/69/1 19/63/1 103/64/1 104/70/1
f 31/71/1 6/67/1 90/68/1 115/72/1
f 7/2/1 6/67/1 90/68/1 91/3/1
f 21/6/1 20/69/1 104/70/1 105/7/1
f 102/58/2 101/52/2 141/73/2 142/74/2
f 89/62/3 87/34/3 127/75/3 129/76/3
f 103/64/2 102/58/2 142/74/2 143/77/2
f 90/68/3 89/62/3 129/76/3 130/78/3
f 104/70/2 103/64/2 143/77/2 144/79/2
f 91/3/3 90/68/3 130/78/3 131/80/3
f 105/7/2 104/70/2 144/79/2 145/81/2
f 92/4/3 91/3/3 131/80/3 132/82/3
f 119/33/4 124/83/4 160/84/4 155/85/4
f 106/8/2 105/7/2 145/81/2 146/86/2
f 93/10/3 92/4/3 132/82/3 133/87/3
f 121/88/4 120/56/4 156/89/4 157/90/4
f 107/12/2 106/8/2 146/86/2 147/91/2
f 94/14/3 93/10/3 133/87/3 134/92/3
f 122/93/4 121/88/4 157/90/4 158/94/4
f 108/16/2 107/12/2 147/91/2 148/95/2
f 95/18/3 94/14/3 134/92/3 135/96/3
f 123/97/4 122/93/4 158/94/4 159/98/4
f 109/24/2 108/16/2 148/95/2 149/99/2
f 96/26/3 95/18/3 135/96/3 136/100/3
f 124/83/4 123/97/4 159/98/4 160/84/4
f 110/30/2 109/24/2 149/99/2 150/101/2
f 97/36/3 96/26/3 136/100/3 137/102/3
f 87/34/3 119/33/3 155/85/3 127/75/3
f 111/22/5 85/21/5 125/103/5 151/104/5
f 98/40/3 97/36/3 137/102/3 138/105/3
f 120/56/2 88/50/2 128/106/2 156/89/2
f 112/28/5 111/22/5 151/104/5 152/107/5
f 99/44/3 98/40/3 138/105/3 139/108/3
f 85/21/3 99/44/3 139/108/3 125/103/3
f 113/38/5 112/28/5 152/107/5 153/109/5
f 100/48/2 86/46/2 126/110/2 140/111/2
f 86/46/5 114/42/5 154/112/5 126/110/5
f 114/42/5 113/38/5 153/109/5 154/112/5
f 101/52/2 100/48/2 140/111/2 141/73/2
f 88/50/2 110/30/2 150/101/2 128/106/2
f 122/93/6 123/97/6 165/113/6 164/114/6
f 120/56/6 121/88/6 163/115/6 162/116/6
f 123/97/6 124/83/6 166/117/6 165/113/6
f 121/88/6 122/93/6 164/114/6 163/115/6
f 124/83/6 119/33/6 161/118/6 166/117/6
f 113/38/1 114/42/1 174/119/1 173/120/1
f 111/22/1 112/28/1 172/121/1 171/122/1
f 112/28/1 113/38/1 173/120/1 172/121/1
f 85/21/1 111/22/1 171/122/1 169/123/1
f 114/42/1 86/46/1 170/124/1 174/119/1
f 124/83/1 123/97/1 179/125/1 180/126/1
f 122/93/1 121/88/1 177/127/1 178/128/1
f 119/33/1 124/83/1 180/126/1 175/129/1
f 123/97/1 122/93/1 178/128/1 179/125/1
f 121/88/1 120/56/1 176/130/1 177/127/1
f 179/125/7 178/128/7 184/131/7 185/132/7
f 177/127/7 176/130/7 182/133/7 183/134/7
f 180/126/7 179/125/7 185/132/7 186/135/7
f 178/128/7 177/127/7 183/134/7 184/131/7
f 175/129/7 180/126/7 186/135/7 181/136/7
f 174/119/8 170/124/8 182/133/8 183/134/8 184/131/8 185/132/8 186/135/8 181/136/8 169/123/8 171/122/8 172/121/8 173/120/8
f 181/136/2 169/123/2 175/129/2
f 182/133/3 176/130/3 170/124/3
g Plane_Plane.002_floor
usemtl floor
f 75/137/9 26/29/9 4/49/9 31/71/9
f 30/41/9 2/45/9 16/47/9 35/138/9
f 35/138/9 16/47/9 17/51/9 39/139/9
f 39/139/9 17/51/9 18/57/9 43/140/9
f 43/140/9 18/57/9 19/63/9 47/141/9
f 47/141/9 19/63/9 20/69/9 51/142/9
f 51/142/9 20/69/9 21/6/9 55/59/9
f 55/59/9 21/6/9 22/5/9 59/143/9
f 59/143/9 22/5/9 23/11/9 63/144/9
f 63/144/9 23/11/9 24/15/9 67/145/9
f 67/145/9 24/15/9 25/23/9 71/146/9
f 71/146/9 25/23/9 26/29/9 75/137/9
f 6/67/9 74/147/9 78/148/9 5/61/9
f 74/147/9 73/149/9 77/150/9 78/148/9
f 73/149/9 72/151/9 76/152/9 77/150/9
f 72/151/9 71/146/9 75/137/9 76/152/9
f 7/2/9 70/65/9 74/147/9 6/67/9
f 70/65/9 69/153/9 73/149/9 74/147/9
f 69/153/9 68/154/9 72/151/9 73/149/9
f 68/154/9 67/145/9 71/146/9 72/151/9
f 8/1/9 66/155/9 70/65/9 7/2/9
f 66/155/9 65/156/9 69/153/9 70/65/9
f 65/156/9 64/157/9 68/154/9 69/153/9
f 64/157/9 63/144/9 67/145/9 68/154/9
f 9/9/9 62/158/9 66/155/9 8/1/9
f 62/158/9 61/159/9 65/156/9 66/155/9
f 61/159/9 60/160/9 64/157/9 65/156/9
f 60/160/9 59/143/9 63/144/9 64/157/9
f 10/13/9 58/161/9 62/158/9 9/9/9
f 58/161/9 57/162/9 61/159/9 62/158/9
f 57/162/9 56/163/9 60/160/9 61/159/9
f 56/163/9 55/59/9 59/143/9 60/160/9
f 11/17/9 54/164/9 58/161/9 10/13/9
f 54/164/9 53/165/9 57/162/9 58/161/9
f 53/165/9 52/166/9 56/163/9 57/162/9
f 52/166/9 51/142/9 55/59/9 56/163/9
f 12/25/9 50/167/9 54/164/9 11/17/9
f 50/167/9 49/168/9 53/165/9 54/164/9
f 49/168/9 48/169/9 52/166/9 53/165/9
f 48/169/9 47/141/9 51/142/9 52/166/9
f 13/35/9 46/53/9 50/167/9 12/25/9
f 46/53/9 45/170/9 49/168/9 50/167/9
f 45/170/9 44/171/9 48/169/9 49/168/9
f 44/171/9 43/140/9 47/141/9 48/169/9
f 14/39/9 42/172/9 46/53/9 13/35/9
f 42/172/9 41/173/9 45/170/9 46/53/9
f 41/173/9 40/174/9 44/171/9 45/170/9
f 40/174/9 39/139/9 43/140/9 44/171/9
f 15/43/9 38/175/9 42/172/9 14/39/9
f 38/175/9 37/176/9 41/173/9 42/172/9
f 37/176/9 36/177/9 40/174/9 41/173/9
f 36/177/9 35/138/9 39/139/9 40/174/9
f 1/20/9 27/19/9 38/175/9 15/43/9
f 27/19/9 28/27/9 37/176/9 38/175/9
f 28/27/9 29/37/9 36/177/9 37/176/9
f 29/37/9 30/41/9 35/138/9 36/177/9
f 5/61/9 78/148/9 34/178/9 3/31/9
f 78/148/9 77/150/9 33/179/9 34/178/9
f 77/150/9 76/152/9 32/180/9 33/179/9
f 76/152/9 75/137/9 31/71/9 32/180/9
f 3/31/9 34/178/9 84/181/9 79/32/9
f 33/179/9 32/180/9 82/182/9 83/183/9
f 31/71/9 4/49/9 80/55/9 81/184/9
f 34/178/9 33/179/9 83/183/9 84/181/9
f 32/180/9 31/71/9 81/184/9 82/182/9
f 79/32/9 84/181/9 124/83/9 119/33/9
f 81/184/9 80/55/9 120/56/9 121/88/9
f 82/182/9 81/184/9 121/88/9 122/93/9
f 83/183/9 82/182/9 122/93/9 123/97/9
f 84/181/9 83/183/9 123/97/9 124/83/9
l 168 167
o Plane.001_Plane.003
v 1.000000 2.573859 -0.288390
v -0.600000 2.191016 -0.834169
v 1.000000 2.909651 -0.523934
v -0.600000 2.526807 -1.069714
vn -0.3846 0.5301 0.7557
g Plane.001_Plane.003_slices.002
usemtl slices.002
s off
f 188//10 187//10 189//10 190//10
o Plane.002_Plane.004
v -1.000000 1.999594 -1.107059
v 0.600000 1.616751 -1.652839
v -1.000000 2.335386 -1.342604
v 0.600000 1.952542 -1.888383
vn -0.3846 -0.5301 -0.7557
g Plane.002_Plane.004_slices.003
usemtl slices.003
s off
f 192//11 191//11 193//11 194//11
o Plane.003_Plane.005
v 1.000000 1.425329 -1.925729
v -0.600000 1.042486 -2.471508
v 1.000000 1.761120 -2.161273
v -0.600000 1.378277 -2.707053
vn -0.3846 0.5301 0.7557
g Plane.003_Plane.005_slices.004
usemtl slices.004
s off
f 196//12 195//12 197//12 198//12
o Plane.004_Plane.006
v -1.000000 0.851064 -2.744398
v 0.600000 0.468220 -3.290177
v -1.000000 1.186855 -2.979942
v 0.600000 0.804012 -3.525722
vn -0.3846 -0.5301 -0.7557
g Plane.004_Plane.006_slices.005
usemtl slices.005
s off
f 200//13 199//13 201//13 202//13
