# Blender v2.92.0 OBJ File: 'urampa.blend'
# www.blender.org
mtllib urampa.mtl
o Plane_Plane.004
v 0.616409 -1.014973 2.110670
v 0.616409 -1.014973 -2.195966
v 0.616409 -1.014973 -2.195966
v 0.616409 -1.014973 2.110670
v -5.330630 4.033823 -2.195966
v -5.330630 4.008233 2.110670
v 2.995224 4.033823 2.110670
v 5.374039 4.033823 2.110670
v 5.374039 4.008233 -2.195966
v -2.951814 4.008233 -2.195966
v 0.616409 1.233464 2.110670
v 0.616409 1.225894 -2.195966
v 2.995224 4.008233 -2.195966
v -2.951814 4.033823 2.110670
v 2.913944 3.804648 2.110670
v 2.991781 3.998032 2.110670
v 2.991781 3.998032 -2.195966
v 2.913944 3.780532 -2.195966
v 2.827710 3.587090 2.110670
v 2.827710 3.564374 -2.195966
v 2.733610 3.372223 2.110670
v 2.733610 3.350890 -2.195966
v 2.632224 3.161371 2.110670
v 2.632224 3.141394 -2.195966
v 2.524178 2.955835 2.110670
v 2.524178 2.937181 -2.195966
v 2.410137 2.756882 2.110670
v 2.410137 2.739508 -2.195966
v 2.290806 2.565737 2.110670
v 2.290806 2.549594 -2.195966
v 2.166919 2.383581 2.110670
v 2.166919 2.368611 -2.195966
v 2.039239 2.211537 2.110670
v 2.039239 2.197673 -2.195966
v 1.908556 2.050664 2.110670
v 1.908556 2.037835 -2.195966
v 1.775673 1.901954 2.110670
v 1.775673 1.890083 -2.195966
v 1.641411 1.766325 2.110670
v 1.641411 1.755325 -2.195966
v 1.506597 1.644612 2.110670
v 1.506597 1.634396 -2.195966
v 1.372062 1.537566 2.110670
v 1.372062 1.528039 -2.195966
v 1.238636 1.445848 2.110670
v 1.238636 1.436911 -2.195966
v 1.107141 1.370022 2.110670
v 1.107141 1.361573 -2.195966
v 0.978389 1.310555 2.110670
v 0.978389 1.302488 -2.195966
v 0.853172 1.267815 2.110670
v 0.853172 1.260024 -2.195966
v 0.732264 1.242065 2.110670
v 0.732264 1.234439 -2.195966
v 0.616409 1.225894 2.110670
v 0.616409 1.225894 -2.195966
v -0.688854 1.242065 2.110670
v -0.572999 1.233464 2.110670
v -0.572999 1.225894 -2.195966
v -0.688854 1.234439 -2.195966
v -0.809763 1.267815 2.110670
v -0.809763 1.260024 -2.195966
v -0.934979 1.310555 2.110670
v -0.934979 1.302488 -2.195966
v -1.063731 1.370022 2.110670
v -1.063731 1.361573 -2.195966
v -1.195226 1.445848 2.110670
v -1.195226 1.436911 -2.195966
v -1.328652 1.537566 2.110670
v -1.328652 1.528039 -2.195966
v -1.463187 1.644612 2.110670
v -1.463187 1.634396 -2.195966
v -1.598001 1.766325 2.110670
v -1.598001 1.755325 -2.195966
v -1.732263 1.901954 2.110670
v -1.732263 1.890083 -2.195966
v -1.865146 2.050664 2.110670
v -1.865146 2.037835 -2.195966
v -1.995830 2.211537 2.110670
v -1.995830 2.197673 -2.195966
v -2.123509 2.383581 2.110670
v -2.123509 2.368611 -2.195966
v -2.247397 2.565737 2.110670
v -2.247397 2.549594 -2.195966
v -2.366728 2.756882 2.110670
v -2.366728 2.739508 -2.195966
v -2.480768 2.955835 2.110670
v -2.480768 2.937181 -2.195966
v -2.588815 3.161371 2.110670
v -2.588815 3.141394 -2.195966
v -2.690201 3.372223 2.110670
v -2.690201 3.350890 -2.195966
v -2.784300 3.587090 2.110670
v -2.784300 3.564374 -2.195966
v -2.870534 3.804648 2.110670
v -2.870534 3.780532 -2.195966
v -2.948371 3.998032 2.110670
v -2.948371 3.998032 -2.195966
v 2.632224 1.073199 2.110670
v 1.641410 0.370176 -2.195966
v 2.733610 1.167958 -2.195966
v 1.641410 0.375675 2.110670
v 2.733610 1.178625 2.110670
v 0.616409 0.105461 -2.195966
v 1.775673 0.437555 -2.195966
v 0.616409 0.105461 2.110670
v 2.827710 1.274700 -2.195966
v 1.775673 0.443491 2.110670
v 2.827710 1.286058 2.110670
v 2.913944 1.394837 2.110670
v 0.853172 0.122525 -2.195966
v 0.732264 0.109733 -2.195966
v 2.039239 0.591350 -2.195966
v 1.908555 0.511431 -2.195966
v 0.732264 0.113546 2.110670
v 0.853172 0.126421 2.110670
v 2.991781 1.491529 -2.195966
v 2.913944 1.382779 -2.195966
v 1.908555 0.517846 2.110670
v 2.039239 0.598282 2.110670
v 1.506596 0.314820 2.110670
v 2.632224 1.063210 -2.195966
v 1.506596 0.309711 -2.195966
v 2.524178 0.970431 2.110670
v 1.372062 0.261297 2.110670
v 2.524178 0.961104 -2.195966
v 1.372062 0.256533 -2.195966
v 2.410137 0.870954 2.110670
v 1.238636 0.215437 2.110670
v 2.410137 0.862267 -2.195966
v 1.238636 0.210969 -2.195966
v 5.374039 1.509425 2.110670
v 2.995224 1.509425 2.110670
v 2.290806 0.775382 2.110670
v 2.991781 1.491529 2.110670
v 5.374039 1.496630 -2.195966
v 1.107141 0.177524 2.110670
v 2.290806 0.767310 -2.195966
v 2.995224 1.496630 -2.195966
v 1.107141 0.173300 -2.195966
v 2.166918 0.684304 2.110670
v 0.978389 0.147791 2.110670
v 2.166918 0.676819 -2.195966
v 0.978389 0.143757 -2.195966
v -0.572999 0.105461 -2.195966
v -0.688854 0.109733 -2.195966
v -1.865146 0.517846 2.110670
v -2.784300 1.274700 -2.195966
v -0.688854 0.113546 2.110670
v -0.572999 0.109246 2.110670
v -1.732263 0.437555 -2.195966
v -2.784300 1.286058 2.110670
v -1.732263 0.443491 2.110670
v -2.690201 1.167958 -2.195966
v -1.598001 0.370176 -2.195966
v -2.690201 1.178625 2.110670
v -1.598001 0.375675 2.110670
v -2.480768 0.961104 -2.195966
v -2.588815 1.063210 -2.195966
v -1.328652 0.256533 -2.195966
v -1.463187 0.309711 -2.195966
v -2.588815 1.073199 2.110670
v -2.480768 0.970431 2.110670
v -1.463187 0.314820 2.110670
v -1.328652 0.261297 2.110670
v -2.870534 1.394837 2.110670
v -1.865146 0.511431 -2.195966
v -2.870534 1.382779 -2.195966
v -0.809763 0.126421 2.110670
v -1.995830 0.598282 2.110670
v -0.809763 0.122525 -2.195966
v -2.948371 1.491529 2.110670
v -1.995830 0.591350 -2.195966
v -2.948371 1.491529 -2.195966
v -0.934979 0.147791 2.110670
v -2.123509 0.684304 2.110670
v -0.934979 0.143757 -2.195966
v -5.330630 1.496630 2.110670
v -5.330630 1.509425 -2.195966
v -2.123509 0.676819 -2.195966
v -1.063732 0.177524 2.110670
v -2.247397 0.775382 2.110670
v -1.063732 0.173300 -2.195966
v -2.951814 1.496630 -2.195966
v -2.247397 0.767310 -2.195966
v 0.616409 0.109246 2.110670
v 0.616409 0.105461 -2.195966
v -1.195226 0.215437 2.110670
v -2.366728 0.870954 2.110670
v -1.195226 0.210969 -2.195966
v -2.951814 1.509425 2.110670
v -2.366728 0.862267 -2.195966
v -5.330630 2.613041 -2.195966
v -5.330630 2.587450 2.110670
v 2.995224 2.613041 2.110670
v 5.374039 2.613041 2.110670
v 5.374039 2.587450 -2.195966
v -2.951814 2.587450 -2.195966
v 2.995224 2.587450 -2.195966
v -2.951814 2.613041 2.110670
v -5.330630 0.075847 2.110670
v 5.374039 0.088643 2.110670
v 5.374039 0.075847 -2.195966
v 2.995224 0.088642 2.110670
v 2.995224 0.075847 -2.195966
v -5.330630 0.088642 -2.195966
v -2.951814 0.075847 -2.195966
v -2.951814 0.088642 2.110670
vt 0.000000 0.000000
vt 0.000000 0.000000
vt 0.000000 0.000000
vt 0.000000 0.000000
vt 0.000000 0.000000
vt 0.000000 0.000000
vt 0.000000 0.000000
vt 0.000000 0.000000
vt 0.000000 0.000000
vt 0.000000 0.000000
vt 0.000000 0.000000
vt 0.000000 0.000000
vt 0.000000 0.000000
vt 0.000000 0.000000
vt 0.000000 0.000000
vt 0.000000 0.000000
vt 0.000000 0.000000
vt 0.000000 0.000000
vt 0.000000 0.000000
vt 0.000000 0.000000
vt 0.000000 0.000000
vt 0.000000 0.000000
vt 0.000000 0.000000
vt 0.000000 0.000000
vt 0.000000 0.000000
vt 0.000000 0.000000
vt 0.000000 0.000000
vt 0.000000 0.000000
vt 0.000000 0.000000
vt 0.000000 0.000000
vt 0.000000 0.000000
vt 0.000000 0.000000
vt 0.000000 0.000000
vt 0.000000 0.000000
vt 0.000000 0.000000
vt 0.000000 0.000000
vt 0.000000 0.000000
vt 0.000000 0.000000
vt 0.000000 0.000000
vt 0.000000 0.000000
vt 0.000000 0.000000
vt 0.000000 0.000000
vt 0.000000 0.000000
vt 0.000000 0.000000
vt 0.000000 0.000000
vt 0.000000 0.000000
vt 0.000000 0.000000
vt 0.000000 0.000000
vt 0.000000 0.000000
vt 0.000000 0.000000
vt 0.000000 0.000000
vt 0.000000 0.000000
vt 0.000000 0.000000
vt 0.000000 0.000000
vt 0.000000 0.000000
vt 0.000000 0.000000
vt 0.000000 0.000000
vt 0.000000 0.000000
vt 0.000000 0.000000
vt 0.000000 0.000000
vt 0.000000 0.000000
vt 0.000000 0.000000
vt 0.000000 0.000000
vt 0.000000 0.000000
vt 0.000000 0.000000
vt 0.000000 0.000000
vt 0.000000 0.000000
vt 0.000000 0.000000
vt 0.000000 0.000000
vt 0.000000 0.000000
vt 0.000000 0.000000
vt 0.000000 0.000000
vt 0.000000 0.000000
vt 0.000000 0.000000
vt 0.000000 0.000000
vt 0.000000 0.000000
vt 0.000000 0.000000
vt 0.000000 0.000000
vt 0.000000 0.000000
vt 0.000000 0.000000
vt 0.000000 0.000000
vt 0.000000 0.000000
vt 0.000000 0.000000
vt 0.000000 0.000000
vt 0.000000 0.000000
vt 0.000000 0.000000
vt 0.000000 0.000000
vt 0.000000 0.000000
vt 0.000000 0.000000
vt 0.000000 0.000000
vt 0.000000 0.000000
vt 0.000000 0.000000
vt 0.000000 0.000000
vt 0.000000 0.000000
vt 0.000000 0.000000
vt 0.000000 0.000000
vt 0.000000 0.000000
vt 0.000000 0.000000
vt 0.000000 0.000000
vt 0.000000 0.000000
vt 0.000000 0.000000
vt 0.000000 0.000000
vt 0.000000 0.000000
vt 0.000000 0.000000
vt 0.000000 0.000000
vt 0.000000 0.000000
vt 0.000000 0.000000
vt 0.000000 0.000000
vt 0.000000 0.000000
vt 0.000000 0.000000
vt 0.000000 0.000000
vt 0.000000 0.000000
vt 0.749542 0.000000
vt 0.750000 0.000000
vt 0.750000 1.000000
vt 0.749542 1.000000
vt 0.000000 0.000000
vt 0.000000 0.000000
vt 0.000000 0.000000
vt 0.000000 0.000000
vt 0.000000 0.000000
vt 0.000000 0.000000
vt 0.000000 0.000000
vt 0.000000 0.000000
vt 0.000000 0.000000
vt 0.000000 0.000000
vt 0.000000 0.000000
vt 0.000000 0.000000
vt 0.000000 0.000000
vt 0.000000 0.000000
vt 0.000000 0.000000
vt 0.000000 0.000000
vt 0.000000 0.000000
vt 0.000000 0.000000
vt 0.000000 0.000000
vt 0.000000 0.000000
vt 0.000000 0.000000
vt 0.000000 0.000000
vt 0.000000 0.000000
vt 0.000000 0.000000
vt 0.000000 0.000000
vt 0.000000 0.000000
vt 0.000000 0.000000
vt 0.000000 0.000000
vt 0.000000 0.000000
vt 0.000000 0.000000
vt 0.000000 0.000000
vt 0.000000 0.000000
vt 0.000000 0.000000
vt 0.000000 0.000000
vt 0.000000 0.000000
vt 0.000000 0.000000
vt 0.000000 0.000000
vt 0.000000 0.000000
vt 0.000000 0.000000
vt 0.000000 1.000000
vt 0.000000 1.000000
vt 0.000000 0.000000
vt 0.000000 0.000000
vt 0.000000 0.000000
vt 0.000000 0.000000
vt 0.000000 0.000000
vt 0.000000 0.000000
vt 0.000000 0.000000
vt 0.000000 0.000000
vt 0.000000 0.000000
vt 0.000000 0.000000
vt 0.000000 0.000000
vt 0.000000 0.000000
vt 0.000000 0.000000
vt 0.000000 0.000000
vt 0.000000 0.000000
vt 0.000000 0.000000
vt 0.000000 0.000000
vt 0.000000 0.000000
vt 0.000000 0.000000
vt 0.000000 0.000000
vt 0.000000 0.000000
vt 0.000000 0.000000
vt 0.000000 0.000000
vt 0.000000 0.000000
vt 0.000000 0.000000
vt 0.250000 0.000000
vt 0.250000 0.000000
vt 0.000000 0.000000
vt 0.000000 0.000000
vt 0.000000 0.000000
vt 0.000000 0.000000
vt 0.000000 0.000000
vt 0.000000 0.000000
vt 0.000000 0.000000
vt 0.000000 0.000000
vt 0.000000 0.000000
vt 0.000000 0.000000
vt 0.000000 0.000000
vt 0.000000 0.000000
vt 0.000000 0.000000
vt 0.000000 0.000000
vt 0.000000 0.000000
vt 0.000000 0.000000
vt 0.000000 0.000000
vt 0.000000 0.000000
vt 0.000000 0.000000
vt 0.000000 0.000000
vt 0.000000 0.000000
vt 0.000000 0.000000
vt 0.000000 0.000000
vt 0.000000 0.000000
vt 0.000000 0.000000
vt 1.000000 0.000000
vt 0.750000 0.000000
vt 1.000000 0.000000
vt 1.000000 1.000000
vt 1.000000 1.000000
vt 0.250000 1.000000
vt 0.250000 1.000000
vt 0.750000 1.000000
vt 0.250458 0.000000
vt 0.250458 1.000000
vt 0.500000 0.000000
vt 0.500000 0.000000
vt 0.500000 1.000000
vt 0.500000 1.000000
vt 0.739741 1.000000
vt 0.739741 0.000000
vt 0.729942 1.000000
vt 0.729942 0.000000
vt 0.720206 1.000000
vt 0.720206 0.000000
vt 0.710592 1.000000
vt 0.710592 0.000000
vt 0.701160 1.000000
vt 0.701160 0.000000
vt 0.691968 1.000000
vt 0.691968 0.000000
vt 0.683072 1.000000
vt 0.683072 0.000000
vt 0.674528 1.000000
vt 0.674528 0.000000
vt 0.666388 1.000000
vt 0.666388 0.000000
vt 0.625000 1.000000
vt 0.625000 0.000000
vt 0.600639 1.000000
vt 0.600639 0.000000
vt 0.588984 1.000000
vt 0.588984 0.000000
vt 0.577280 1.000000
vt 0.577280 0.000000
vt 0.565601 1.000000
vt 0.565601 0.000000
vt 0.554017 1.000000
vt 0.554017 0.000000
vt 0.542602 1.000000
vt 0.542602 0.000000
vt 0.531425 1.000000
vt 0.531425 0.000000
vt 0.520554 1.000000
vt 0.520554 0.000000
vt 0.510058 1.000000
vt 0.510058 0.000000
vt 0.500000 1.000000
vt 0.500000 0.000000
vt 0.489942 1.000000
vt 0.489942 0.000000
vt 0.479446 1.000000
vt 0.479446 0.000000
vt 0.468575 1.000000
vt 0.468575 0.000000
vt 0.457398 1.000000
vt 0.457398 0.000000
vt 0.445983 1.000000
vt 0.445983 0.000000
vt 0.434399 1.000000
vt 0.434399 0.000000
vt 0.422720 1.000000
vt 0.422720 0.000000
vt 0.411016 1.000000
vt 0.411016 0.000000
vt 0.399361 1.000000
vt 0.399361 0.000000
vt 0.375000 1.000000
vt 0.375000 0.000000
vt 0.333612 1.000000
vt 0.333612 0.000000
vt 0.325472 1.000000
vt 0.325472 0.000000
vt 0.316928 1.000000
vt 0.316928 0.000000
vt 0.308032 1.000000
vt 0.308032 0.000000
vt 0.298840 1.000000
vt 0.298840 0.000000
vt 0.289408 1.000000
vt 0.289408 0.000000
vt 0.279794 1.000000
vt 0.279794 0.000000
vt 0.270058 1.000000
vt 0.270058 0.000000
vt 0.260259 1.000000
vt 0.260259 0.000000
vn 0.0000 0.0000 1.0000
vn -0.0000 0.0000 -1.0000
vn -0.9890 0.1481 -0.0004
vn -1.0000 0.0000 0.0000
vn 1.0000 0.0000 0.0000
vn 0.9890 0.1481 -0.0004
vn 0.0000 1.0000 -0.0018
vn -0.9351 0.3543 -0.0010
vn -0.9292 0.3695 -0.0020
vn -0.9155 0.4022 -0.0021
vn -0.9007 0.4345 -0.0021
vn -0.8845 0.4665 -0.0021
vn -0.8669 0.4985 -0.0021
vn -0.8475 0.5308 -0.0021
vn -0.8260 0.5636 -0.0020
vn -0.8021 0.5972 -0.0020
vn -0.7752 0.6317 -0.0020
vn -0.7446 0.6675 -0.0019
vn -0.7095 0.7047 -0.0019
vn -0.6689 0.7433 -0.0018
vn -0.6214 0.7835 -0.0018
vn -0.5652 0.8249 -0.0018
vn -0.4983 0.8670 -0.0018
vn -0.4182 0.9084 -0.0017
vn -0.3221 0.9467 -0.0017
vn -0.2077 0.9782 -0.0018
vn -0.1061 0.9944 -0.0009
vn 0.0738 0.9973 -0.0018
vn 0.2077 0.9782 -0.0018
vn 0.3221 0.9467 -0.0017
vn 0.4182 0.9084 -0.0017
vn 0.4983 0.8670 -0.0018
vn 0.5652 0.8249 -0.0018
vn 0.6214 0.7835 -0.0018
vn 0.6689 0.7433 -0.0018
vn 0.7095 0.7047 -0.0019
vn 0.7446 0.6675 -0.0019
vn 0.7752 0.6317 -0.0020
vn 0.8021 0.5972 -0.0020
vn 0.8260 0.5636 -0.0020
vn 0.8475 0.5308 -0.0021
vn 0.8669 0.4985 -0.0021
vn 0.8845 0.4665 -0.0021
vn 0.9007 0.4345 -0.0021
vn 0.9155 0.4022 -0.0021
vn 0.9292 0.3695 -0.0020
vn 0.9351 0.3543 -0.0010
vn 0.0000 1.0000 -0.0059
vn 0.0000 1.0000 0.0000
g Plane_Plane.004_Urampa.003
usemtl Urampa.003
s off
f 172/1/1 166/2/1 95/3/1 97/4/1
f 122/5/2 126/6/2 26/7/2 24/8/2
f 125/9/1 121/10/1 41/11/1 43/12/1
f 146/13/2 171/14/2 62/15/2 60/16/2
f 170/17/1 147/18/1 77/19/1 79/20/1
f 124/21/1 99/22/1 23/23/1 25/24/1
f 169/25/1 149/26/1 57/27/1 61/28/1
f 148/29/2 168/30/2 96/31/2 94/32/2
f 100/33/2 123/34/2 42/35/2 40/36/2
f 151/37/2 167/38/2 78/39/2 76/40/2
f 166/2/1 152/41/1 93/42/1 95/3/1
f 101/43/2 122/5/2 24/8/2 22/44/2
f 121/10/1 102/45/1 39/46/1 41/11/1
f 145/47/2 146/13/2 60/16/2 59/48/2
f 147/18/1 153/49/1 75/50/1 77/19/1
f 99/22/1 103/51/1 21/52/1 23/23/1
f 154/53/2 148/29/2 94/32/2 92/54/2
f 105/55/2 100/33/2 40/36/2 38/56/2
f 149/26/1 150/57/1 58/58/1 57/27/1
f 155/59/2 151/37/2 76/40/2 74/60/2
f 152/41/1 156/61/1 91/62/1 93/42/1
f 107/63/2 101/43/2 22/44/2 20/64/2
f 102/45/1 108/65/1 37/66/1 39/46/1
f 153/49/1 157/67/1 73/68/1 75/50/1
f 103/51/1 109/69/1 19/70/1 21/52/1
f 112/71/2 104/72/2 56/73/2 54/74/2
f 159/75/2 154/53/2 92/54/2 90/76/2
f 114/77/2 105/55/2 38/56/2 36/78/2
f 106/79/1 115/80/1 53/81/1 55/82/1
f 161/83/2 155/59/2 74/60/2 72/84/2
f 156/61/1 162/85/1 89/86/1 91/62/1
f 118/87/2 107/63/2 20/64/2 18/88/2
f 108/65/1 119/89/1 35/90/1 37/66/1
f 157/67/1 164/91/1 71/92/1 73/68/1
f 109/69/1 110/93/1 15/94/1 19/70/1
f 111/95/2 112/71/2 54/74/2 52/96/2
f 158/97/2 159/75/2 90/76/2 88/98/2
f 113/99/2 114/77/2 36/78/2 34/100/2
f 115/80/1 116/101/1 51/102/1 53/81/1
f 160/103/2 161/83/2 72/84/2 70/104/2
f 162/85/1 163/105/1 87/106/1 89/86/1
f 117/107/2 118/87/2 18/88/2 17/108/2
f 119/89/1 120/109/1 33/110/1 35/90/1
f 164/91/1 165/111/1 69/112/1 71/92/1
f 16/113/3 7/114/3 13/115/3 17/116/3
f 167/38/2 173/117/2 80/118/2 78/39/2
f 123/34/2 127/119/2 44/120/2 42/35/2
f 168/30/2 174/121/2 98/122/2 96/31/2
f 175/123/1 169/25/1 61/28/1 63/124/1
f 128/125/1 124/21/1 25/24/1 27/126/1
f 176/127/1 170/17/1 79/20/1 81/128/1
f 171/14/2 177/129/2 64/130/2 62/15/2
f 129/131/1 125/9/1 43/12/1 45/132/1
f 126/6/2 130/133/2 28/134/2 26/7/2
f 132/135/4 136/136/4 203/137/4 202/138/4
f 173/117/2 180/139/2 82/140/2 80/118/2
f 127/119/2 131/141/2 46/142/2 44/120/2
f 179/143/5 178/144/5 201/145/5 206/146/5
f 181/147/1 175/123/1 63/124/1 65/148/1
f 134/149/1 128/125/1 27/126/1 29/150/1
f 135/151/1 133/152/1 7/153/1 16/154/1
f 6/155/4 5/156/4 193/157/4 194/158/4
f 182/159/1 176/127/1 81/128/1 83/160/1
f 177/129/2 183/161/2 66/162/2 64/130/2
f 137/163/1 129/131/1 45/132/1 47/164/1
f 130/133/2 138/165/2 30/166/2 28/134/2
f 139/167/2 117/107/2 17/108/2 13/168/2
f 178/144/2 191/169/2 208/170/2 201/145/2
f 180/139/2 185/171/2 84/172/2 82/140/2
f 131/141/2 140/173/2 48/174/2 46/142/2
f 150/57/1 186/175/1 11/176/1 58/58/1
f 188/177/1 181/147/1 65/148/1 67/178/1
f 141/179/1 134/149/1 29/150/1 31/180/1
f 187/181/2 145/47/2 59/48/2 12/182/2
f 14/183/1 6/155/1 194/158/1 200/184/1
f 189/185/1 182/159/1 83/160/1 85/186/1
f 183/161/2 190/187/2 68/188/2 66/162/2
f 142/189/1 137/163/1 47/164/1 49/190/1
f 138/165/2 143/191/2 32/192/2 30/166/2
f 191/169/1 172/1/1 97/4/1 14/193/1
f 185/171/2 192/194/2 86/195/2 84/172/2
f 140/173/2 144/196/2 50/197/2 48/174/2
f 174/121/2 184/198/2 10/199/2 98/122/2
f 10/199/1 184/198/1 207/200/1 198/201/1
f 165/111/1 188/177/1 67/178/1 69/112/1
f 120/109/1 141/179/1 31/180/1 33/110/1
f 163/105/1 189/185/1 85/186/1 87/106/1
f 190/187/2 160/103/2 70/104/2 68/188/2
f 116/101/1 142/189/1 49/190/1 51/102/1
f 143/191/2 113/99/2 34/100/2 32/192/2
f 110/93/1 135/151/1 16/154/1 15/94/1
f 192/194/2 158/97/2 88/98/2 86/195/2
f 144/196/2 111/95/2 52/96/2 50/197/2
f 206/146/4 201/145/4 194/158/4 193/202/4
f 204/203/1 202/138/1 196/204/1 195/205/1
f 202/138/5 203/137/5 197/206/5 196/204/5
f 207/200/2 206/146/2 193/202/2 198/201/2
f 203/137/2 205/207/2 199/208/2 197/206/2
f 201/145/1 208/170/1 200/209/1 194/158/1
f 8/210/1 7/114/1 195/211/1 196/212/1
f 7/153/1 133/152/1 204/203/1 195/205/1
f 136/136/1 139/167/1 205/207/1 203/137/1
f 9/213/5 8/210/5 196/212/5 197/214/5
f 191/169/1 14/193/1 200/209/1 208/170/1
f 184/198/1 179/143/1 206/146/1 207/200/1
f 5/156/2 10/215/2 198/216/2 193/157/2
f 133/152/2 132/135/2 202/138/2 204/203/2
f 13/115/2 9/213/2 197/214/2 199/217/2
f 139/167/1 13/168/1 199/208/1 205/207/1
g Plane_Plane.004_UrampaU.001
usemtl UrampaU.001
f 14/183/6 97/218/6 98/219/6 10/215/6
f 58/220/7 11/221/7 12/222/7 59/223/7
f 16/113/8 17/116/8 18/224/8 15/225/8
f 15/225/9 18/224/9 20/226/9 19/227/9
f 19/227/10 20/226/10 22/228/10 21/229/10
f 21/229/11 22/228/11 24/230/11 23/231/11
f 23/231/12 24/230/12 26/232/12 25/233/12
f 25/233/13 26/232/13 28/234/13 27/235/13
f 27/235/14 28/234/14 30/236/14 29/237/14
f 29/237/15 30/236/15 32/238/15 31/239/15
f 31/239/16 32/238/16 34/240/16 33/241/16
f 33/241/17 34/240/17 36/242/17 35/243/17
f 35/243/18 36/242/18 38/244/18 37/245/18
f 37/245/19 38/244/19 40/246/19 39/247/19
f 39/247/20 40/246/20 42/248/20 41/249/20
f 41/249/21 42/248/21 44/250/21 43/251/21
f 43/251/22 44/250/22 46/252/22 45/253/22
f 45/253/23 46/252/23 48/254/23 47/255/23
f 47/255/24 48/254/24 50/256/24 49/257/24
f 49/257/25 50/256/25 52/258/25 51/259/25
f 51/259/26 52/258/26 54/260/26 53/261/26
f 53/261/27 54/260/27 56/262/27 55/263/27
f 58/220/28 59/223/28 60/264/28 57/265/28
f 57/265/29 60/264/29 62/266/29 61/267/29
f 61/267/30 62/266/30 64/268/30 63/269/30
f 63/269/31 64/268/31 66/270/31 65/271/31
f 65/271/32 66/270/32 68/272/32 67/273/32
f 67/273/33 68/272/33 70/274/33 69/275/33
f 69/275/34 70/274/34 72/276/34 71/277/34
f 71/277/35 72/276/35 74/278/35 73/279/35
f 73/279/36 74/278/36 76/280/36 75/281/36
f 75/281/37 76/280/37 78/282/37 77/283/37
f 77/283/38 78/282/38 80/284/38 79/285/38
f 79/285/39 80/284/39 82/286/39 81/287/39
f 81/287/40 82/286/40 84/288/40 83/289/40
f 83/289/41 84/288/41 86/290/41 85/291/41
f 85/291/42 86/290/42 88/292/42 87/293/42
f 87/293/43 88/292/43 90/294/43 89/295/43
f 89/295/44 90/294/44 92/296/44 91/297/44
f 91/297/45 92/296/45 94/298/45 93/299/45
f 93/299/46 94/298/46 96/300/46 95/301/46
f 95/301/47 96/300/47 98/219/47 97/218/47
g Plane_Plane.004_UrampUP
usemtl UrampUP
f 7/114/48 8/210/48 9/213/48 13/115/48
f 6/155/49 14/183/49 10/215/49 5/156/49
l 1 4
l 3 2
